# xmcd
#
# Track frame offsets:
#	150
#	15760
#	28794
#	45080
#	58292
#	72162
#	90907
#	107260
#	121872
#	135405
#	153920
#	168817
#
# Disc length: 2404 seconds
#
# Revision: 0
# Processed by: cddbd v1.5PL3 Copyright (c) Steve Scherf et al.
# Submitted via: dBpowerAMP V4.0
#
DISCID=7b09620c
DTITLE=Bruno and Marrone - Vol. 1
DYEAR=1994
DGENRE=Sertanejo
TTITLE0=Dormi na Praça
TTITLE1=Diga
TTITLE2=Não Vê Que Te Amo (Together)
TTITLE3=É Nisso Que Dá
TTITLE4=A Saudade Não Passa
TTITLE5=Ela Me Faz Chorar
TTITLE6=Como Ficar Sem Você
TTITLE7=Explosão de Amor
TTITLE8=Eu Te Peguei Outra Vez
TTITLE9=Não Dá Pra viver Sem Você
TTITLE10=Só Dá Ela
TTITLE11=Pedaço de Poema
EXTD=
EXTT0=
EXTT1=
EXTT2=
EXTT3=
EXTT4=
EXTT5=
EXTT6=
EXTT7=
EXTT8=
EXTT9=
EXTT10=
EXTT11=
PLAYORDER=
